HIERARCHY
ROOT pelvis
{
  OFFSET 0 100 0
  CHANNELS 6 Xposition Yposition Zposition Zrotation Xrotation Yrotation
  JOINT pelvis_right_femur
  {
    OFFSET -10.78128 -3.44521 -0.5502486
    CHANNELS 3 Zrotation Xrotation Yrotation
    JOINT right_femur_tibia
    {
      OFFSET -0.8047443 -44.0398 -0.1307829
      CHANNELS 3 Zrotation Xrotation Yrotation
      JOINT right_tibia_foot
      {
        OFFSET 3.006224 -47.83518 -5
        CHANNELS 3 Zrotation Xrotation Yrotation
        End Site
        {
          OFFSET 0 -5 15
        }
      }
    }
  }
  JOINT pelvis_left_femur
  {
    OFFSET 10.78128 -3.44521 -0.5502486
    CHANNELS 3 Zrotation Xrotation Yrotation
    JOINT left_femur_tibia
    {
      OFFSET 0.8047443 -44.0398 -0.1307829
      CHANNELS 3 Zrotation Xrotation Yrotation
      JOINT left_tibia_foot
      {
        OFFSET -4.370144 -48.10324 -4.275266
        CHANNELS 3 Zrotation Xrotation Yrotation
        End Site
        {
          OFFSET 0 -5 15
        }
      }
    }
  }
  JOINT pelvis_spine1
  {
    OFFSET 0 6.468898 -3.129235
    CHANNELS 3 Zrotation Xrotation Yrotation
    JOINT spine1
    {
      OFFSET 0 23.15396 4.99043
      CHANNELS 3 Zrotation Xrotation Yrotation
      JOINT spine2
      {
        OFFSET 0 20.79997 -5.064912
        CHANNELS 3 Zrotation Xrotation Yrotation
        JOINT neck
        {
          OFFSET 0 14.38658 9.616178
          CHANNELS 3 Zrotation Xrotation Yrotation
          End Site
          {
            OFFSET 0 20 0
          }
        }
      }
      JOINT right_manubrium
      {
        OFFSET -5.722621 16.35077 3.967754
        CHANNELS 3 Zrotation Xrotation Yrotation
        JOINT right_clavicle
        {
          OFFSET -13.16364 1.694482 -4.693211
          CHANNELS 3 Zrotation Xrotation Yrotation
          JOINT right_humerus
          {
            OFFSET -28.5034 -0.3100689 -2.792744
            CHANNELS 3 Zrotation Xrotation Yrotation
            JOINT right_radius
            {
              OFFSET -25.15693 0.02248979 -1.271978
              CHANNELS 3 Zrotation Xrotation Yrotation
              End Site
              {
                OFFSET -15 0 0
              }
            }
          }
        }
      }
      JOINT left_manubrium
      {
        OFFSET 5.722621 16.35077 3.967754
        CHANNELS 3 Zrotation Xrotation Yrotation
        JOINT left_clavicle
        {
          OFFSET 13.16364 1.694482 -4.693211
          CHANNELS 3 Zrotation Xrotation Yrotation
          JOINT left_humerus
          {
            OFFSET 29.39168 -1.063119 -2.237045
            CHANNELS 3 Zrotation Xrotation Yrotation
            JOINT left_radius
            {
              OFFSET 24.59957 -0.9528479 0.9047498
              CHANNELS 3 Zrotation Xrotation Yrotation
              End Site
              {
                OFFSET 15 -0 -0
              }
            }
          }
        }
      }
    }
  }
}
MOTION
Frames: 17
Frame Time: 0.0416666666667
0 103.5113 0 2.929279 -0.003663629 0.1845987 2.614881 -15.6222 11.22251 -0 38.79066 -0 -3.934548 -18.11619 -3.562806 -9.219193 9.19739 -22.83618 -0 4.560583 -0 22.09484 -8.681244 29.77279 -2.991929 -2.900104 5.284049 2.305478 10.90977 -7.649466 1.663568 20.57035 6.654869 3.687122 -25.88942 9.527327 6.694644 -20.34389 11.5205 86.15495 37.54917 -18.84741 -0 0 15.35075 -8.10497 9.529001 5.214509 6.417422 -20.46449 -1.885272 -93.51489 22.4335 22.04619 0 0 -16.10099 14.47091 14.82959 -1.047089
0.3723299 103.4311 1.555851 2.286875 0.7757847 0.337715 3.819908 -17.99933 11.3245 -0 38.54738 -0 -4.52936 -16.75941 -3.044476 -9.002289 9.047835 -22.55695 -0 5.001802 -0 22.4344 -9.252337 30.09809 -2.991302 -2.703224 5.055387 2.57224 10.54372 -7.815363 1.567174 20.41606 6.883735 3.733829 -26.46647 9.653242 6.528438 -20.21333 11.61341 86.08937 37.37407 -18.82625 -0 0 15.09498 -8.098482 9.39737 5.47145 6.410306 -20.33931 -1.64114 -93.22035 22.36299 21.61021 0 0 -16.55696 14.24155 14.68997 -1.020806
0.6737559 103.1062 3.575151 1.832484 0.5581302 0.5445485 3.771466 -20.10008 7.108482 -0 32.16481 -0 -6.273952 -13.84608 -1.485467 -8.384893 10.95588 -21.44957 -0 5.426509 -0 17.26521 -13.84587 27.4642 -2.854562 -2.364301 4.814479 2.827797 10.26181 -7.894606 1.549216 20.37432 6.830016 3.653739 -26.8463 9.590087 6.282451 -19.81367 11.53801 86.28922 36.9544 -19.13977 -0 0 14.31244 -8.144373 9.316459 5.632124 6.175963 -20.16242 -1.752762 -92.86597 22.74308 21.17463 0 0 -17.08623 13.37438 14.3352 -0.1641006
0.9592999 102.778 5.780135 1.326608 1.084157 0.7252237 4.401353 -21.9263 6.677703 -0 30.53069 -0 -6.68895 -12.60617 -1.127242 -8.080638 11.22742 -21.10603 -0 5.623689 -0 15.75497 -15.43968 26.97136 -2.828583 -2.253127 4.707232 2.980382 10.07458 -7.942701 1.540345 20.35858 6.813042 3.589106 -27.13037 9.613003 6.175496 -19.71959 11.53637 86.28755 36.80675 -19.19886 -0 0 14.11635 -8.035106 9.194562 5.685357 6.086706 -20.05702 -1.736141 -92.78432 22.92006 21.06438 0 0 -17.31258 13.08221 14.33018 0.1036111
1.23449 102.3798 8.233404 0.8275074 1.515133 0.9165831 4.968979 -24.1212 5.904637 -0 28.38392 -0 -7.298151 -10.84046 -0.6620658 -7.718755 11.64578 -20.46399 -0 6.016647 -0 14.30123 -16.98285 26.08675 -2.811104 -2.109373 4.543965 3.254231 9.72933 -8.010124 1.541652 20.36034 6.748811 3.435581 -27.67281 9.684295 5.998981 -19.64097 11.54034 86.21575 36.58651 -19.23646 -0 0 13.93151 -7.714208 8.907075 5.719609 5.931719 -19.84773 -1.688827 -92.75693 23.28386 21.01379 0 0 -17.63863 12.65178 14.47573 0.5053411
1.512022 101.9446 10.90088 0.3390905 2.082591 1.122686 5.640841 -26.25507 5.681322 -0 26.71764 -0 -7.69449 -9.280154 -0.3568985 -7.404747 11.85791 -19.9298 -0 6.424893 -0 13.31802 -18.12918 25.4277 -2.807068 -2.007603 4.418274 3.471091 9.451221 -8.054647 1.547159 20.37323 6.690102 3.305389 -28.10955 9.748072 5.861532 -19.60204 11.5449 86.13359 36.41452 -19.23838 -0 0 13.83498 -7.433471 8.657456 5.734944 5.807956 -19.67098 -1.649907 -92.76825 23.58904 21.01181 0 0 -17.86529 12.32446 14.63045 0.8117839
1.799332 101.4626 13.83019 -0.1389927 2.670809 1.364196 6.322968 -28.54038 5.418775 -0 24.81477 -0 -8.133555 -7.433101 0.01129636 -7.090267 12.10688 -19.23847 -0 7.042479 -0 12.5172 -19.08048 24.58508 -2.797559 -1.889996 4.281866 3.676776 9.188247 -8.09894 1.544634 20.38066 6.648836 3.197846 -28.5054 9.79453 5.728838 -19.53298 11.54963 86.06455 36.2281 -19.24696 -0 0 13.69404 -7.223029 8.441641 5.782277 5.685589 -19.50509 -1.625061 -92.73712 23.86342 20.95494 0 0 -18.09241 11.96653 14.72508 1.140327
2.104201 100.9426 17.06655 -0.6076592 3.281142 1.661273 7.015272 -30.82225 5.185258 -0 22.78366 -0 -8.56868 -5.389325 0.4181643 -6.781102 12.38136 -18.43415 -0 7.916932 -0 11.80744 -19.80968 23.5711 -2.78252 -1.78765 4.168985 3.833335 8.990612 -8.129281 1.544161 20.39242 6.608765 3.114241 -28.78986 9.816272 5.62533 -19.45655 11.54715 86.02277 36.06299 -19.26741 -0 0 13.55104 -7.083788 8.285542 5.825234 5.578861 -19.37381 -1.625902 -92.6986 24.09356 20.8944 0 0 -18.26476 11.63852 14.77524 1.449394
2.434396 100.402 20.69397 -1.082656 3.876467 2.038316 7.711841 -33.06949 4.880986 -0 20.56736 -0 -9.050913 -3.003621 0.9073634 -6.457977 12.7445 -17.41506 -0 9.273059 -0 11.08524 -20.25494 22.2406 -2.754202 -1.689612 4.072575 3.944937 8.855894 -8.150563 1.544231 20.4052 6.569535 3.055138 -28.96213 9.806606 5.547637 -19.35303 11.53569 86.022 35.90817 -19.31816 -0 0 13.36945 -7.028727 8.198 5.871374 5.48194 -19.27815 -1.657626 -92.63254 24.28386 20.8067 0 0 -18.40124 11.30966 14.7607 1.76926
2.799534 99.88257 24.81925 -1.587298 4.410773 2.516084 8.431464 -35.10576 4.536811 -0 18.34103 -0 -9.568115 -0.2710456 1.448978 -6.096463 13.21098 -16.13273 -0 11.40255 -0 10.19855 -20.2827 20.49053 -2.708312 -1.607772 4.007792 3.997433 8.803096 -8.156104 1.552725 20.42657 6.515158 3.013787 -28.99617 9.761826 5.502745 -19.22857 11.50855 86.07283 35.77094 -19.40935 -0 0 13.1629 -7.046984 8.185641 5.895861 5.395737 -19.22434 -1.727385 -92.56016 24.4476 20.72264 0 0 -18.47774 10.98922 14.69505 2.103072
3.212989 99.46298 29.57184 -2.156273 4.818739 3.102154 9.220484 -36.64756 4.244261 -0 16.3936 -0 -10.06694 2.754039 1.960027 -5.655251 13.7546 -14.53144 -0 14.77903 -0 8.918036 -19.66126 18.18443 -2.637707 -1.541931 3.979154 3.985383 8.83917 -8.142804 1.573222 20.46082 6.436344 2.986548 -28.87818 9.676344 5.49119 -19.07535 11.46064 86.18473 35.64489 -19.55268 -0 0 12.92297 -7.13955 8.254149 5.888622 5.317334 -19.2155 -1.840847 -92.48644 24.59862 20.65067 0 0 -18.48551 10.66001 14.57802 2.474519
3.693712 99.26861 35.06961 -2.812015 5.018725 3.768745 10.12004 -37.18343 4.204306 -0 15.14071 -0 -10.37083 5.771181 2.245398 -5.086872 14.20867 -12.63326 -0 20.0078 -0 6.923473 -18.0499 15.24345 -2.5354 -1.496098 3.996028 3.900752 8.970973 -8.103684 1.610254 20.51517 6.322321 2.968977 -28.59309 9.546255 5.513379 -18.89101 11.38589 86.36067 35.52444 -19.75348 -0 0 12.6565 -7.30132 8.405199 5.832782 5.247222 -19.25703 -2.000149 -92.42903 24.75402 20.61371 0 0 -18.40459 10.31145 14.42075 2.902455
4.26483 99.46102 41.34456 -3.519235 4.939505 4.422431 11.05912 -35.97132 4.653866 -0 14.89831 -0 -10.14698 8.098358 2.008543 -4.36076 14.12231 -10.61695 -0 27.65113 -0 3.906471 -15.06371 11.79653 -2.395077 -1.467161 4.060508 3.744453 9.189502 -8.034501 1.661915 20.59287 6.174152 2.961776 -28.14297 9.369833 5.563587 -18.66876 11.28238 86.59089 35.39755 -20.00689 -0 0 12.36668 -7.533955 8.634657 5.726211 5.18902 -19.35539 -2.197667 -92.39669 24.92276 20.61938 0 0 -18.22868 9.925781 14.23116 3.404946
4.941102 100.1761 48.22526 -4.110841 4.56305 4.88963 11.67614 -32.33322 5.616035 -0 15.43219 -0 -9.097913 8.684743 1.063939 -3.526292 12.67129 -8.885906 -0 37.6553 -0 -0.08929584 -10.61858 8.419024 -2.216258 -1.447176 4.168923 3.525254 9.47183 -7.935334 1.717139 20.68989 6.011677 2.974905 -27.547 9.149694 5.632281 -18.40517 11.15619 86.84824 35.25591 -20.28875 -0 0 12.06094 -7.851009 8.934439 5.589173 5.153131 -19.51965 -2.412604 -92.38477 25.08865 20.6558 0 0 -17.96892 9.498772 14.00994 3.97585
5.699301 101.4119 55.28575 -4.267119 3.909031 4.979126 11.38966 -26.42536 6.596735 -0 15.64025 -0 -7.529115 6.756042 -0.2330231 -2.804948 9.066708 -7.893397 -0 48.63273 -0 -4.244407 -5.601917 6.063074 -2.008713 -1.421516 4.318187 3.243119 9.808364 -7.808263 1.751978 20.79237 5.881169 3.04033 -26.80212 8.881986 5.71677 -18.09836 11.0244 87.09872 35.10961 -20.54878 -0 0 11.73826 -8.325296 9.319455 5.487257 5.15505 -19.76716 -2.623013 -92.35405 25.17397 20.67598 0 0 -17.64083 9.055254 13.71099 4.570018
6.458393 102.9834 62.04192 -3.690201 2.883279 4.63435 9.988195 -19.57067 6.785725 -0 14.40166 -0 -6.441493 2.899017 -1.151145 -2.532249 3.572604 -7.683634 -0 58.19631 -0 -7.162608 -1.92779 5.379044 -1.791131 -1.373628 4.528353 2.861363 10.23634 -7.636148 1.734735 20.89281 5.838873 3.21111 -25.82261 8.538676 5.82534 -17.7516 10.90678 87.30132 34.98116 -20.69132 -0 0 11.40884 -9.127293 9.843164 5.530394 5.207174 -20.12569 -2.824741 -92.25177 25.044 20.6395 0 0 -17.20085 8.633655 13.22629 5.13395
7.119069 104.644 68.27647 -2.415468 1.290836 4.026317 7.973204 -13.01536 5.932411 -0 12.13572 -0 -6.33165 -1.153335 -1.537802 -2.743351 -2.442034 -7.739271 -0 64.59616 -0 -8.086182 -0.8692881 6.26059 -1.58856 -1.289701 4.827834 2.366681 10.74111 -7.379524 1.642575 21.01243 5.905623 3.496454 -24.57483 8.099822 5.925196 -17.40792 10.81555 87.34007 34.83336 -20.54523 -0 0 11.18325 -10.36738 10.48152 5.812828 5.298355 -20.57684 -3.000806 -92.09752 24.6618 20.60737 0 0 -16.57085 8.193863 12.51887 5.701859
